<!-- icon666.com - MILLIONS vector ICONS FREE --><svg viewBox="0 -95 512 512" xmlns="http://www.w3.org/2000/svg"><path d="m512 12.207031v298.394531c0 6.738282-5.449219 12.207032-12.199219 12.207032h-487.601562c-6.75 0-12.199219-5.46875-12.199219-12.207032v-298.394531c0-4.214843 2.132812-7.921875 5.367188-10.117187 1.945312-1.316406 4.296874-2.089844 6.828124-2.089844h487.605469c2.535157 0 4.882813.773438 6.832031 2.089844 3.234376 2.195312 5.367188 5.90625 5.367188 10.117187zm0 0" fill="#fdc142"></path><path d="m512 12.207031v1.113281l-243.84375 155.007813c-3.636719 2.308594-7.839844 3.535156-12.15625 3.535156s-8.519531-1.226562-12.15625-3.535156l-243.84375-154.996094v-1.125c0-4.214843 2.132812-7.921875 5.367188-10.117187 1.945312-1.316406 4.296874-2.089844 6.828124-2.089844h487.605469c2.535157 0 4.882813.773438 6.832031 2.089844 3.234376 2.195312 5.367188 5.90625 5.367188 10.117187zm0 0" fill="#fd9e28"></path><g fill="#ffe578"><path d="m506.632812 2.085938-245.105468 155.804687c-3.375 2.144531-7.679688 2.144531-11.054688 0l-245.105468-155.804687c1.953124-1.316407 4.296874-2.085938 6.835937-2.085938h487.597656c2.535157 0 4.878907.769531 6.832031 2.085938zm0 0"></path><path d="m472.84375 291.613281c-.003906 0-.011719 0-.019531 0h-134.078125c-4.269532-.011719-7.71875-3.480469-7.710938-7.746093.011719-4.261719 3.46875-7.710938 7.730469-7.710938h.015625 134.082031c4.269531.011719 7.71875 3.804688 7.707031 8.074219-.007812 4.261719-3.46875 7.382812-7.726562 7.382812zm0 0"></path><path d="m472.90625 262.214844c-.007812 0-.011719 0-.015625 0h-88.488281c-4.269532-.007813-7.71875-3.347656-7.710938-7.613282.007813-4.261718 3.464844-7.839843 7.726563-7.839843h.015625 88.488281c4.269531.011719 7.71875 3.804687 7.710937 8.070312-.007812 4.261719-3.46875 7.382813-7.726562 7.382813zm0 0"></path><path d="m356.832031 262.214844c-.011719 0-.023437 0-.03125 0h-18.003906c-4.269531-.015625-7.714844-3.488282-7.695313-7.753906.015626-4.257813 3.472657-7.699219 7.722657-7.699219h.03125 18.003906c4.269531.019531 7.714844 3.5625 7.699219 7.828125-.019532 4.257812-3.472656 7.625-7.726563 7.625zm0 0"></path></g><path d="m148.34375 229.722656v38.953125c-8.582031 0-15.539062 6.953125-15.539062 15.535157h-68.859376c0-8.582032-6.953124-15.535157-15.535156-15.535157v-38.953125c8.582032 0 15.535156-6.964844 15.535156-15.546875h68.859376c0 8.582031 6.957031 15.546875 15.539062 15.546875zm0 0" fill="#43a3f9"></path></svg>